# xmcd
# 
# Track frame offsets:
#     150
#     22134
#     44427
#     65394
#     79404
#     97237
#     109216
#     115872
#     130044
#     142894
#     153890
#     166381
#     179263
#     198983
#     219513
# 
# Disc length: 3149
# 
# Revision: 2
# Processed by: cddbd v1.5.2PL0 Copyright (c) Steve Scherf et al.
# Submitted via: BonkEnc v1.0.8
# 
DISCID=d30c4b0f
DTITLE=Robić i drugi - Samo jednom se ljubi
DYEAR=2011
DGENRE=Blues
TTITLE0=Audio track
TTITLE1=Audio track
TTITLE2=Audio track
TTITLE3=Audio track
TTITLE4=Audio track
TTITLE5=Audio track
TTITLE6=Audio track
TTITLE7=Audio track
TTITLE8=Audio track
TTITLE9=Audio track
TTITLE10=Audio track
TTITLE11=Audio track
TTITLE12=Audio track
TTITLE13=Audio track
TTITLE14=Audio track
EXTD=
EXTT0=
EXTT1=
EXTT2=
EXTT3=
EXTT4=
EXTT5=
EXTT6=
EXTT7=
EXTT8=
EXTT9=
EXTT10=
EXTT11=
EXTT12=
EXTT13=
EXTT14=
PLAYORDER=
